<svg width="39" height="31" viewBox="0 0 39 31" fill="none" xmlns="http://www.w3.org/2000/svg">
<path id="Vector" d="M12.8904 24.219C12.8904 24.3434 12.7117 24.4429 12.4863 24.4429C12.2299 24.4616 12.0512 24.362 12.0512 24.219C12.0512 24.0946 12.2299 23.9951 12.4553 23.9951C12.6884 23.9764 12.8904 24.0759 12.8904 24.219ZM10.4739 23.9391C10.4195 24.0635 10.5749 24.2066 10.808 24.2439C11.01 24.3061 11.2431 24.2439 11.2898 24.1195C11.3364 23.9951 11.1888 23.852 10.9557 23.7961C10.7536 23.7525 10.5283 23.8147 10.4739 23.9391ZM13.9082 23.8334C13.6829 23.8769 13.5275 23.9951 13.5508 24.1381C13.5741 24.2625 13.7762 24.3434 14.0093 24.2998C14.2346 24.2563 14.39 24.1381 14.3667 24.0137C14.3434 23.8956 14.1336 23.8147 13.9082 23.8334ZM19.0209 0C8.24394 0 0 6.5492 0 15.1757C0 22.0732 5.42344 27.9756 13.1701 30.0529C14.1647 30.196 14.5143 29.7047 14.5143 29.3004C14.5143 28.9148 14.491 26.7877 14.491 25.4816C14.491 25.4816 9.05201 26.4145 7.90983 23.6281C7.90983 23.6281 7.02405 21.8182 5.74978 21.3518C5.74978 21.3518 3.97045 20.3753 5.8741 20.394C5.8741 20.394 7.80882 20.5184 8.8733 21.9986C10.5749 24.3994 13.4265 23.709 14.5376 23.2985C14.7163 22.3034 15.2214 21.613 15.7808 21.2025C11.4374 20.8169 7.05513 20.3131 7.05513 14.3299C7.05513 12.6195 7.64565 11.7612 8.88884 10.6666C8.68682 10.2623 8.02638 8.59544 9.09086 6.44347C10.7148 6.0392 14.4521 8.12275 14.4521 8.12275C16.0061 7.77446 17.6767 7.59409 19.3317 7.59409C20.9867 7.59409 22.6572 7.77446 24.2112 8.12275C24.2112 8.12275 27.9486 6.03298 29.5725 6.44347C30.637 8.60166 29.9765 10.2623 29.7745 10.6666C31.0177 11.7674 31.7792 12.6257 31.7792 14.3299C31.7792 20.3318 27.2027 20.8107 22.8592 21.2025C23.5741 21.6938 24.1801 22.6268 24.1801 24.0884C24.1801 26.1844 24.1568 28.7779 24.1568 29.2879C24.1568 29.6922 24.5143 30.1836 25.501 30.0405C33.271 27.9756 38.539 22.0732 38.539 15.1757C38.539 6.5492 29.7978 0 19.0209 0ZM7.55241 21.4513C7.4514 21.5135 7.47471 21.6565 7.6068 21.7747C7.73112 21.8742 7.90983 21.9178 8.01084 21.8369C8.11185 21.7747 8.08854 21.6317 7.95645 21.5135C7.83213 21.414 7.65342 21.3704 7.55241 21.4513ZM6.71325 20.9475C6.65886 21.0284 6.73656 21.1279 6.89196 21.1901C7.01628 21.2523 7.17168 21.2336 7.22607 21.1465C7.28046 21.0657 7.20276 20.9662 7.04736 20.904C6.89196 20.8666 6.76764 20.8853 6.71325 20.9475ZM9.23072 23.1617C9.1064 23.2425 9.15302 23.4291 9.33173 23.5473C9.51044 23.6903 9.73577 23.709 9.83678 23.6095C9.93779 23.5286 9.89117 23.342 9.73577 23.2239C9.56483 23.0808 9.33173 23.0622 9.23072 23.1617ZM8.34495 22.2474C8.22063 22.3096 8.22063 22.4713 8.34495 22.6143C8.46927 22.7574 8.67905 22.8196 8.78006 22.7574C8.90438 22.6765 8.90438 22.5148 8.78006 22.3718C8.67128 22.2287 8.46927 22.1665 8.34495 22.2474Z" fill="white"/>
</svg>
