<svg width="32" height="31" viewBox="0 0 32 31" fill="none" xmlns="http://www.w3.org/2000/svg">
<g id="Vector" filter="url(#filter0_d_1_71)">
<path d="M15.7784 5.37346C12.4368 5.37346 9.74145 7.89839 9.74145 11.0287C9.74145 14.159 12.4368 16.6839 15.7784 16.6839C19.1201 16.6839 21.8154 14.159 21.8154 11.0287C21.8154 7.89839 19.1201 5.37346 15.7784 5.37346ZM15.7784 14.7054C13.619 14.7054 11.8536 13.0565 11.8536 11.0287C11.8536 9.00089 13.6137 7.35206 15.7784 7.35206C17.9431 7.35206 19.7033 9.00089 19.7033 11.0287C19.7033 13.0565 17.9379 14.7054 15.7784 14.7054ZM23.4705 5.14214C23.4705 5.8755 22.84 6.4612 22.0624 6.4612C21.2795 6.4612 20.6543 5.87057 20.6543 5.14214C20.6543 4.4137 21.2848 3.82307 22.0624 3.82307C22.84 3.82307 23.4705 4.4137 23.4705 5.14214ZM27.4689 6.48089C27.3796 4.71393 26.9487 3.14877 25.5669 1.85924C24.1903 0.569708 22.5195 0.166113 20.6333 0.0775196C18.6892 -0.0258399 12.8624 -0.0258399 10.9184 0.0775196C9.0374 0.161192 7.36658 0.564786 5.98475 1.85432C4.60291 3.14385 4.17733 4.70901 4.08275 6.47597C3.97242 8.29706 3.97242 13.7554 4.08275 15.5765C4.17207 17.3435 4.60291 18.9086 5.98475 20.1982C7.36658 21.4877 9.03214 21.8913 10.9184 21.9799C12.8624 22.0833 18.6892 22.0833 20.6333 21.9799C22.5195 21.8962 24.1903 21.4926 25.5669 20.1982C26.9435 18.9086 27.3743 17.3435 27.4689 15.5765C27.5792 13.7554 27.5792 8.30198 27.4689 6.48089ZM24.9574 17.5305C24.5476 18.4952 23.7542 19.2384 22.7192 19.6272C21.1692 20.2031 17.4913 20.0702 15.7784 20.0702C14.0656 20.0702 10.3825 20.1982 8.83774 19.6272C7.80793 19.2433 7.01456 18.5001 6.59948 17.5305C5.98475 16.0786 6.12661 12.6332 6.12661 11.0287C6.12661 9.42417 5.99 5.97393 6.59948 4.5269C7.0093 3.56221 7.80268 2.81901 8.83774 2.43018C10.3877 1.85432 14.0656 1.98721 15.7784 1.98721C17.4913 1.98721 21.1744 1.85924 22.7192 2.43018C23.749 2.81409 24.5423 3.55729 24.9574 4.5269C25.5721 5.97886 25.4303 9.42417 25.4303 11.0287C25.4303 12.6332 25.5721 16.0835 24.9574 17.5305Z" fill="white"/>
</g>
<defs>
<filter id="filter0_d_1_71" x="0" y="0" width="31.5516" height="30.0574" filterUnits="userSpaceOnUse" color-interpolation-filters="sRGB">
<feFlood flood-opacity="0" result="BackgroundImageFix"/>
<feColorMatrix in="SourceAlpha" type="matrix" values="0 0 0 0 0 0 0 0 0 0 0 0 0 0 0 0 0 0 127 0" result="hardAlpha"/>
<feOffset dy="4"/>
<feGaussianBlur stdDeviation="2"/>
<feComposite in2="hardAlpha" operator="out"/>
<feColorMatrix type="matrix" values="0 0 0 0 0 0 0 0 0 0 0 0 0 0 0 0 0 0 0.25 0"/>
<feBlend mode="normal" in2="BackgroundImageFix" result="effect1_dropShadow_1_71"/>
<feBlend mode="normal" in="SourceGraphic" in2="effect1_dropShadow_1_71" result="shape"/>
</filter>
</defs>
</svg>
