<svg width="71" height="47" viewBox="0 0 71 47" fill="none" xmlns="http://www.w3.org/2000/svg">
<g id="Vector" filter="url(#filter0_d_1_11)">
<path d="M30.775 14.6188C29.0425 14.6188 27.625 15.7157 27.625 17.0563V23.1501C27.625 23.8235 26.9202 24.3689 26.05 24.3689C25.1798 24.3689 24.475 23.8235 24.475 23.1501V17.3191C24.475 15.9945 24.9396 14.6935 25.8226 13.557L33.4761 3.68586C34.3709 2.53109 33.8886 1.03431 32.3963 0.34114C30.9738 -0.319272 29.1754 0.0135996 28.2324 1.04268C28.2127 1.0602 28.1713 1.05868 28.1546 1.07925L16.6118 14.4779C15.5723 15.6845 15.025 17.0868 15.025 18.5326V24.6438L6.15381 26.9321C5.52654 27.0935 4.9809 27.4038 4.5943 27.8187C4.2077 28.2337 3.99977 28.7323 4 29.2439V36.5564C4 37.3806 4.83869 38.9939 7.15 38.9939C7.4148 38.9939 7.68255 38.968 7.94341 38.9154L25.5824 35.3643C30.4954 34.2773 33.925 30.7589 33.925 26.8064V17.0563C33.925 15.7157 32.5075 14.6188 30.775 14.6188ZM64.8462 26.9382L55.975 24.6499V18.5387C55.975 17.0929 55.4277 15.6906 54.3882 14.484L42.8454 1.0861C42.8277 1.06554 42.7873 1.06782 42.7676 1.04954C41.8246 0.0204551 40.0262 -0.312417 38.6037 0.347995C37.1114 1.0404 36.6291 2.53794 37.5239 3.69271L45.1774 13.5639C46.0604 14.7003 46.525 16.0014 46.525 17.326V23.157C46.525 23.8303 45.8202 24.3757 44.95 24.3757C44.0798 24.3757 43.375 23.8303 43.375 23.157V17.0632C43.375 15.7226 41.9575 14.6257 40.225 14.6257C38.4925 14.6257 37.075 15.7226 37.075 17.0632V26.8132C37.075 30.7658 40.5046 34.2842 45.4176 35.3704L63.0566 38.9215C63.3184 38.9741 63.5862 39 63.85 39C66.1613 39 67 37.3867 67 36.5625V29.25C67 28.2011 66.1328 27.2703 64.8462 26.9382Z" fill="white"/>
</g>
<defs>
<filter id="filter0_d_1_11" x="0" y="0" width="71" height="47" filterUnits="userSpaceOnUse" color-interpolation-filters="sRGB">
<feFlood flood-opacity="0" result="BackgroundImageFix"/>
<feColorMatrix in="SourceAlpha" type="matrix" values="0 0 0 0 0 0 0 0 0 0 0 0 0 0 0 0 0 0 127 0" result="hardAlpha"/>
<feOffset dy="4"/>
<feGaussianBlur stdDeviation="2"/>
<feComposite in2="hardAlpha" operator="out"/>
<feColorMatrix type="matrix" values="0 0 0 0 0 0 0 0 0 0 0 0 0 0 0 0 0 0 0.25 0"/>
<feBlend mode="normal" in2="BackgroundImageFix" result="effect1_dropShadow_1_11"/>
<feBlend mode="normal" in="SourceGraphic" in2="effect1_dropShadow_1_11" result="shape"/>
</filter>
</defs>
</svg>
