<svg width="71" height="55" viewBox="0 0 71 55" fill="none" xmlns="http://www.w3.org/2000/svg">
<g id="Vector" filter="url(#filter0_d_1_11)">
<path d="M30.775 17.6176C29.0425 17.6176 27.625 18.9395 27.625 20.5551V27.8989C27.625 28.7103 26.9202 29.3676 26.05 29.3676C25.1798 29.3676 24.475 28.7103 24.475 27.8989V20.8718C24.475 19.2754 24.9396 17.7075 25.8226 16.3379L33.4761 4.44193C34.3709 3.05028 33.8886 1.24647 32.3963 0.411117C30.9738 -0.384764 29.1754 0.0163892 28.2324 1.25657C28.2127 1.27768 28.1713 1.27585 28.1546 1.30063L16.6118 17.4477C15.5723 18.9018 15.025 20.5918 15.025 22.3341V29.699L6.15381 32.4566C5.52654 32.6512 4.9809 33.0251 4.5943 33.5251C4.2077 34.0252 3.99977 34.6261 4 35.2426V44.0551C4 45.0484 4.83869 46.9927 7.15 46.9927C7.4148 46.9927 7.68255 46.9614 7.94341 46.8981L25.5824 42.6185C30.4954 41.3086 33.925 37.0685 33.925 32.3051V20.5551C33.925 18.9395 32.5075 17.6176 30.775 17.6176ZM64.8462 32.4639L55.975 29.7063V22.3415C55.975 20.5991 55.4277 18.9092 54.3882 17.4551L42.8454 1.30889C42.8277 1.28411 42.7873 1.28686 42.7676 1.26483C41.8246 0.024651 40.0262 -0.376502 38.6037 0.419379C37.1114 1.25381 36.6291 3.05855 37.5239 4.45019L45.1774 16.3462C46.0604 17.7158 46.525 19.2837 46.525 20.88V27.9071C46.525 28.7186 45.8202 29.3759 44.95 29.3759C44.0798 29.3759 43.375 28.7186 43.375 27.9071V20.5633C43.375 18.9477 41.9575 17.6258 40.225 17.6258C38.4925 17.6258 37.075 18.9477 37.075 20.5633V32.3134C37.075 37.0767 40.5046 41.3168 45.4176 42.6259L63.0566 46.9054C63.3184 46.9688 63.5862 47 63.85 47C66.1613 47 67 45.0557 67 44.0625V35.25C67 33.9859 66.1328 32.8642 64.8462 32.4639Z" fill="white"/>
</g>
<defs>
<filter id="filter0_d_1_11" x="0" y="0" width="71" height="55" filterUnits="userSpaceOnUse" color-interpolation-filters="sRGB">
<feFlood flood-opacity="0" result="BackgroundImageFix"/>
<feColorMatrix in="SourceAlpha" type="matrix" values="0 0 0 0 0 0 0 0 0 0 0 0 0 0 0 0 0 0 127 0" result="hardAlpha"/>
<feOffset dy="4"/>
<feGaussianBlur stdDeviation="2"/>
<feComposite in2="hardAlpha" operator="out"/>
<feColorMatrix type="matrix" values="0 0 0 0 0 0 0 0 0 0 0 0 0 0 0 0 0 0 0.25 0"/>
<feBlend mode="normal" in2="BackgroundImageFix" result="effect1_dropShadow_1_11"/>
<feBlend mode="normal" in="SourceGraphic" in2="effect1_dropShadow_1_11" result="shape"/>
</filter>
</defs>
</svg>
