<svg width="59" height="54" viewBox="0 0 59 54" fill="none" xmlns="http://www.w3.org/2000/svg">
<path id="Vector" d="M11.0213 36.9184C10.0405 35.3879 9.98017 34.946 12.138 34.4287C16.0009 33.5664 13.3451 35.4203 18.6566 39.7315H18.7019V29.6108C18.883 24.2001 25.3412 19.6733 33.4443 19.6733C41.5775 19.6733 48.1867 24.3618 48.1867 30.1066C48.1867 36.94 39.0123 42.3075 28.7967 40.1627C27.2123 39.71 28.4799 36.746 30.0793 37.0801C38.0768 37.0801 43.5693 35.9915 43.5693 30.1389C43.5693 23.5642 31.9353 20.4817 25.9297 25.3319C22.3837 28.1773 23.274 29.8695 23.274 42.3183C30.9244 45.6595 41.1248 44.6895 47.4775 40.1519C51.2197 37.4789 53.2869 33.9005 53.2869 30.1282C53.2869 26.3342 51.2046 22.7774 47.4322 20.0721C43.69 17.3991 38.7105 15.9225 33.3538 15.9225C27.997 15.9225 22.9722 17.4099 19.2451 20.0721C19.1998 20.1044 16.8308 21.8505 16.0461 22.6481L15.9707 22.7128C15.4727 23.2193 15.0201 23.6936 12.9377 23.3702C11.8965 23.187 10.7799 22.7451 10.7799 22.0984V1.96472C10.7799 1.42581 11.3684 0.833008 12.3643 0.833008H48.7752C50.0276 0.833008 50.0276 2.08328 50.0276 2.46052C50.0276 2.88087 50.0276 4.08802 48.7752 4.08802H15.0955V18.4123H15.1408C30.864 6.57779 57.8138 14.5321 57.8138 30.1497C57.8138 49.3457 20.8748 53.8941 11.0213 36.9184ZM20.573 8.80888C20.4975 9.26156 21.2671 11.4495 22.776 11.0292C41.6077 5.90954 53.3775 15.3836 54.3734 15.3836C55.0977 15.3836 57.8138 13.7345 56.5312 12.9262C42.4678 3.33355 21.1464 6.78258 20.573 8.80888ZM54.7355 44.5063C38.1371 56.3515 9.61802 51.0594 4.6385 33.2754C4.6385 31.9605 0.0512981 32.4778 0.27764 33.6311C3.89911 52.3205 37.3977 61.3203 57.8591 46.705C58.9002 45.8643 55.9578 43.644 54.7355 44.5063ZM27.665 32.855C27.665 33.2862 28.3139 33.6419 28.4949 33.7712C28.9476 34.0945 29.4154 34.2454 29.7776 34.2454C30.351 34.2454 30.1699 34.267 33.1425 32.1437C36.1 34.2239 36.0246 34.2454 36.5075 34.2454C37.3223 34.2454 39.299 33.1245 38.122 32.2838L35.5115 30.4192L38.2578 28.4575C39.2085 27.7246 36.7338 26.1079 35.8133 26.7654L33.1123 28.6947C30.3057 26.6684 30.3359 26.5929 29.8681 26.5929C29.1136 26.5929 27.152 27.854 27.997 28.4575L30.7433 30.4192C28.0121 32.3485 27.665 32.4886 27.665 32.855Z" fill="white"/>
</svg>
